- 
http://www.Speed.Cd 
       
http://www.Speed.Cd      fast  and The Hottest Private Tracker on the net

(((--Submit for invite!!--)))

Please Seed back to make the speed Faster!!!

------------------nfo--------------------------
-[img]http://img846.imageshack.us/img846/8789/pageeo.jpg[/img]


[color=blue][size=5][b]Page.Eight.2011.HDRip.XVID.AC3.HQ.Hive-CM8[/b][/size][/color]


[b]Thx Hive

CM8 Doing It Right The First Time :D


Source: 1080I Recording (either HDTV or HD WEB-DL)


Encode:
presenting you another great movie in great quality.
Video was very nice, just did the usual, sharpness,brightness,rgb,denoise.
Has imdb Voting of 8.3, so should be nice.
Audio is only stereo on source, but better than nothing :P
enjoy


Video: 720x304 @bitrate 2200 2pass
Audio: English AC3 2.0 Stereo
Sample: yes included[/b]


[url]http://www.imdb.com/title/tt1797469/[/url]


General
Complete name                    : Page.Eight.2011.HDRip.XVID.AC3.HQ.Hive-CM8.avi
Format                           : AVI
Format/Info                      : Audio Video Interleave
File size                        : 1.67 GiB
Duration                         : 1h 38mn
Overall bit rate                 : 2 426 Kbps
Writing application              : Nandub v1.0rc2
Writing library                  : Nandub build 1853/release

Video
ID                               : 0
Format                           : MPEG-4 Visual
Format profile                   : Advanced Simple@L5
Format settings, BVOP            : 1
Format settings, QPel            : Yes
Format settings, GMC             : No warppoints
Format settings, Matrix          : Default (H.263)
Muxing mode                      : Packed bitstream
Codec ID                         : XVID
Codec ID/Hint                    : XviD
Duration                         : 1h 38mn
Bit rate                         : 2 225 Kbps
Width                            : 720 pixels
Height                           : 304 pixels
Display aspect ratio             : 2.35:1
Frame rate                       : 25.000 fps
Color space                      : YUV
Chroma subsampling               : 4:2:0
Bit depth                        : 8 bits
Scan type                        : Progressive
Compression mode                 : Lossy
Bits/(Pixel*Frame)               : 0.407
Stream size                      : 1.53 GiB (92%)
Writing library                  : XviD 1.2.1 (UTC 2008-12-04)

Audio
ID                               : 1
Format                           : AC-3
Format/Info                      : Audio Coding 3
Mode extension                   : CM (complete main)
Codec ID                         : 2000
Duration                         : 1h 38mn
Bit rate mode                    : Constant
Bit rate                         : 192 Kbps
Channel(s)                       : 2 channels
Channel positions                : Front: L R
Sampling rate                    : 48.0 KHz
Bit depth                        : 16 bits
Compression mode                 : Lossy
Stream size                      : 135 MiB (8%)
Alignment                        : Split accross interleaves
Interleave, duration             : 40 ms (1.00 video frame)
Interleave, preload duration     : 500 ms


Plot:
An MI5 officer's boss dies, leaving behind a file which threatens the
stability of the organisation. 


Cast:
Ralph Fiennes    ...    Alec Beasley
Rachel Weisz     ...    Nancy
Bill Nighy       ...    Johnny Worricker
Felicity Jones   ...    Julianne Worricker
Michael Gambon   ...    Benedict Baron


[IMG]http://img29.imageshack.us/img29/3318/ppapapaaaaa.png[/IMG]
[img]http://img853.imageshack.us/img853/7611/papapapaa.png[/img]
[img]http://img824.imageshack.us/img824/8052/ppaa.png[/img]
[img]http://img695.imageshack.us/img695/5276/ppapaa.png[/img]
[img]http://img62.imageshack.us/img62/8396/ppapapaa.png[/img]
[img]http://img695.imageshack.us/img695/3721/ppapapaaa.png[/img]
[img]http://img546.imageshack.us/img546/7703/ppapapaaaa.png[/img]
[img]http://img845.imageshack.us/img845/9679/35877544.png[/img]



Greetz

ViSiON,SiC,SANTi,3LT0N,YanKeeS,MAGNET,THC,T0XiC,LKRG,FANTASIA-PLAY,FANTASIA-M,BHRG,IMAGiNE,
D2U,WBZ,FLAWL3SS,NOVA,Vik,Rapeseed,SAFC,goldadvance,MEMORY100,scumbag,KaN1vE,Unevano,Pinnz,
Mr Hive,Wayne,cedrict wink,and all P2P groups
Great Work Guys :D

FYS

LOOKING FOR ANYTHING YOU WANT TO LOOK AND SOUND BETTER

CM8@hushmail.com